<?xml version="1.0" encoding="UTF-8" standalone="no"?>
<!-- Created with Inkscape (http://www.inkscape.org/) -->

<svg
   version="1.1"
   id="svg1"
   width="341.44"
   height="341.44"
   viewBox="0 0 341.44 341.44"
   sodipodi:docname="hatarido.svg"
   inkscape:version="1.4.2 (f4327f4, 2025-05-13)"
   xmlns:inkscape="http://www.inkscape.org/namespaces/inkscape"
   xmlns:sodipodi="http://sodipodi.sourceforge.net/DTD/sodipodi-0.dtd"
   xmlns="http://www.w3.org/2000/svg"
   xmlns:svg="http://www.w3.org/2000/svg">
  <defs
     id="defs1" />
  <sodipodi:namedview
     id="namedview1"
     pagecolor="#ffffff"
     bordercolor="#000000"
     borderopacity="0.25"
     inkscape:showpageshadow="2"
     inkscape:pageopacity="0.0"
     inkscape:pagecheckerboard="0"
     inkscape:deskcolor="#d1d1d1"
     inkscape:zoom="3.4178772"
     inkscape:cx="170.72"
     inkscape:cy="170.72"
     inkscape:window-width="2560"
     inkscape:window-height="1369"
     inkscape:window-x="-8"
     inkscape:window-y="-8"
     inkscape:window-maximized="1"
     inkscape:current-layer="g1" />
  <g
     inkscape:groupmode="layer"
     inkscape:label="Image"
     id="g1">
    <path
       style="fill:#000000"
       d="m 62.707904,262.00477 c -11.923781,-1.39389 -21.746892,-9.53857 -25.555819,-21.18921 -0.706166,-2.16 -0.706166,-2.16 -4.646369,-2.16 -6.367669,0 -10.069865,-1.64064 -13.153016,-5.8288 -2.834553,-3.85047 -2.694602,-1.98202 -2.694602,-35.975 0,-29.23148 0.0145,-29.93943 0.651886,-31.83148 0.358537,-1.0643 1.012934,-2.50703 1.454216,-3.20607 1.140999,-1.80746 56.719742,-64.251788 58.154339,-65.338088 0.653302,-0.49469 2.013963,-1.28669 3.023691,-1.76 1.835869,-0.86056 1.835869,-0.86056 28.58951,-0.94761 l 26.75364,-0.087 0.20636,-2.44124 c 0.1135,-1.34268 0.20636,-3.20978 0.20636,-4.14912 0,-2.21172 1.54409,-7.021321 3.11223,-9.694127 1.57136,-2.678288 5.14972,-6.266063 7.7698,-7.790235 4.00838,-2.331786 6.35752,-2.857978 13.51797,-3.027947 l 6.32,-0.150019 v -7.166651 -7.166611 h 7.36 7.36 v 7.200001 7.2 h 48.16 48.16 v -7.2 -7.200001 h 7.36 7.36 v 7.166611 7.166611 l 6.32,0.150019 c 5.70701,0.135468 6.5683,0.230964 8.88,0.984577 3.54669,1.156217 6.31857,2.859544 8.9551,5.502926 2.61535,2.622158 4.08068,4.959793 5.34035,8.519497 0.90455,2.556149 0.90455,2.556149 0.90455,71.114867 0,76.22679 0.19741,69.50145 -2.18492,74.43489 -1.57237,3.25613 -5.92242,7.67668 -9.23892,9.38867 -2.77805,1.43403 -6.56174,2.45133 -9.11739,2.45133 -1.22817,0 -1.91884,0.13853 -1.99432,0.4 -4.77708,16.54838 -20.94456,26.06678 -37.09778,21.84086 -9.91819,-2.59474 -18.41695,-10.70146 -21.21925,-20.24041 l -0.58742,-1.99956 -28.8,-5.7e-4 c -15.84,-3.2e-4 -48.53514,-0.0962 -72.65587,-0.21308 l -43.855862,-0.21251 -0.89743,2.75881 c -3.663779,11.26293 -13.664712,19.35599 -25.557778,20.68215 -3.366873,0.37543 -3.563956,0.37583 -6.663256,0.0135 z m 7.221014,-11.67287 c 6.694714,-1.41812 12.274006,-6.52569 14.327722,-13.11634 0.90291,-2.89755 0.956463,-7.74165 0.116745,-10.56 -3.88969,-13.05499 -19.60648,-17.97646 -30.196119,-9.45544 -4.276637,3.44123 -6.835017,8.73174 -6.893625,14.25544 -0.05895,5.55581 1.64624,9.78019 5.501421,13.62905 4.734518,4.72674 10.815174,6.58788 17.143856,5.24729 z m 204.480002,0 c 7.39177,-1.56578 13.17044,-7.39347 14.76237,-14.8876 2.4286,-11.43285 -6.62252,-22.44591 -18.43319,-22.4288 -6.51369,0.009 -11.79733,2.70437 -15.54285,7.92766 -5.36361,7.47979 -4.5104,17.48456 2.05598,24.10845 4.71328,4.75456 10.79859,6.62732 17.15769,5.28029 z M 36.485946,225.45556 c 1.324298,-6.77191 6.182293,-14.16911 12.062226,-18.36697 2.485314,-1.77434 6.572548,-3.69865 9.875735,-4.6496 2.215408,-0.63778 3.25452,-0.73352 7.834192,-0.72175 4.827975,0.0124 5.52487,0.0888 8.140276,0.89201 8.073651,2.47957 14.754163,7.91804 18.448081,15.01822 1.472452,2.83023 2.708032,6.25191 3.027942,8.38523 0.21637,1.44286 0.21637,1.44286 19.860032,1.44286 h 19.64367 v -61.28 -61.28 h -25.15063 c -22.708466,0 -25.2331,0.0507 -25.999998,0.52266 -0.467155,0.28746 -2.713059,2.62746 -4.990898,5.2 l -4.141525,4.67734 13.421525,0.16374 c 12.794006,0.15609 13.508286,0.19636 15.277156,0.86128 3.6827,1.38432 6.83583,4.42873 8.27016,7.98501 0.75339,1.86793 0.75431,1.8879 0.84787,18.28381 0.0574,10.06469 -0.0308,17.08729 -0.22818,18.15483 -0.78302,4.23573 -3.67975,7.97918 -7.61785,9.84458 -2.16763,1.02675 -2.16763,1.02675 -39.692988,1.11192 l -37.525357,0.0852 0.08536,26.84133 c 0.08373,26.32902 0.09757,26.8549 0.725357,27.5526 0.943764,1.04886 1.630062,1.23303 4.678367,1.25545 2.758366,0.0203 2.758366,0.0203 3.149481,-1.97972 z M 242.0157,221.77473 c 2.71105,-7.65861 8.5885,-14.08729 16.01748,-17.51969 4.563,-2.10823 6.78962,-2.553 12.70492,-2.5378 4.82798,0.0124 5.52487,0.0888 8.14028,0.89201 6.01101,1.8461 11.4789,5.46316 15.14417,10.01803 2.18198,2.71158 4.4755,6.88473 5.37954,9.78828 0.50267,1.61448 0.67359,1.83978 1.39445,1.83822 2.59678,-0.006 5.34937,-1.88677 6.55283,-4.47822 0.66786,-1.43813 0.66884,-1.50334 0.75375,-50.16 l 0.085,-48.72 H 229.2981 150.40807 l 0.085,48.72 c 0.085,48.72 0.085,48.72 0.76469,50.16 0.85028,1.80146 2.5437,3.43367 4.16025,4.00989 1.03037,0.36727 8.38316,0.44425 43.48007,0.45523 l 42.24,0.0132 z m -49.2835,-19.99917 0.0859,-7.44 h 7.2 7.2 l 0.0859,7.44 0.0859,7.44 h -7.3718 -7.37179 z m 29.19173,7.03846 c -0.0873,-0.22748 -0.11981,-3.57819 -0.0723,-7.44603 l 0.0865,-7.03243 h 7.36 7.36 v 7.36 7.36 l -7.28773,0.086 c -5.72523,0.0676 -7.32176,-0.003 -7.44644,-0.32757 z M 163.5381,172.57556 v -7.52 h 7.36 7.36 v 7.52 7.52 h -7.36 -7.36 z m 29.33333,7.30667 c -0.11733,-0.11734 -0.21333,-3.50134 -0.21333,-7.52 v -7.30667 h 7.36 7.36 v 7.52 7.52 h -7.14667 c -3.93066,0 -7.24266,-0.096 -7.36,-0.21333 z m 29.0525,-0.18821 c -0.0873,-0.22748 -0.11981,-3.57819 -0.0723,-7.44603 l 0.0865,-7.03243 h 7.36 7.36 v 7.36 7.36 l -7.28773,0.086 c -5.72523,0.0676 -7.32176,-0.003 -7.44644,-0.32757 z m 29.29417,-7.11245 v -7.52601 h 7.3659 7.3659 l -0.0859,7.44 -0.0859,7.44 -7.28,0.086 -7.28,0.086 z m 29.12,-0.006 v -7.52 h 7.36 7.36 v 7.52 7.52 h -7.36 -7.36 z m -116.8,-29.28 v -7.36 h 7.36 7.36 v 7.36 7.36 h -7.36 -7.36 z m 29.12,0 v -7.36 h 7.36 7.36 v 7.36 7.36 h -7.36 -7.36 z m 29.12,0 v -7.36 h 7.52 7.52 v 7.36 7.36 h -7.52 -7.52 z m 29.44,0 v -7.36 h 7.36 7.36 v 7.36 7.36 h -7.36 -7.36 z m 29.12,0 v -7.36 h 7.36 7.36 v 7.36 7.36 h -7.36 -7.36 z m -179.72315,16.61678 c 0.84315,-0.66323 0.84315,-0.66323 0.84315,-16.14754 0,-15.48431 0,-15.48431 -0.70034,-16.13677 -0.68726,-0.6403 -1.030162,-0.65248 -18.36442,-0.65248 H 64.729261 l -12.435581,13.9962 c -6.83957,7.69791 -13.565048,15.25791 -14.945507,16.8 l -2.509926,2.8038 h 32.466771 c 32.36122,0 32.46951,-0.002 33.309932,-0.66322 z M 308.12346,96.495562 c -0.10196,-9.05834 -0.12949,-9.409 -0.85409,-10.88039 -0.87838,-1.78365 -2.47733,-3.202302 -4.1864,-3.714352 -0.6805,-0.203883 -3.35875,-0.365257 -6.06199,-0.365257 h -4.84288 v 7.199999 7.2 h -7.36 -7.36 v -7.2 -7.199999 h -48.16 -48.16 v 7.199999 7.2 h -7.36 -7.36 v -7.2 -7.199999 h -4.84287 c -2.70325,0 -5.3815,0.161374 -6.062,0.365257 -1.70907,0.51205 -3.30802,1.930702 -4.1864,3.714352 -0.7246,1.47139 -0.75212,1.82205 -0.85408,10.88039 l -0.10535,9.359998 h 78.9307 78.93071 z"
       id="path1" />
  </g>
</svg>
