<?xml version="1.0" encoding="UTF-8" standalone="no"?>
<!-- Created with Inkscape (http://www.inkscape.org/) -->

<svg
   version="1.1"
   id="svg1"
   width="546.1333"
   height="546.1333"
   viewBox="0 0 546.1333 546.1333"
   sodipodi:docname="listview.svg"
   inkscape:version="1.4.2 (f4327f4, 2025-05-13)"
   xmlns:inkscape="http://www.inkscape.org/namespaces/inkscape"
   xmlns:sodipodi="http://sodipodi.sourceforge.net/DTD/sodipodi-0.dtd"
   xmlns="http://www.w3.org/2000/svg"
   xmlns:svg="http://www.w3.org/2000/svg">
  <defs
     id="defs1" />
  <sodipodi:namedview
     id="namedview1"
     pagecolor="#ffffff"
     bordercolor="#000000"
     borderopacity="0.25"
     inkscape:showpageshadow="2"
     inkscape:pageopacity="0.0"
     inkscape:pagecheckerboard="0"
     inkscape:deskcolor="#d1d1d1"
     inkscape:zoom="2.1368409"
     inkscape:cx="273.06665"
     inkscape:cy="273.06665"
     inkscape:window-width="2560"
     inkscape:window-height="1369"
     inkscape:window-x="-8"
     inkscape:window-y="-8"
     inkscape:window-maximized="1"
     inkscape:current-layer="g1" />
  <g
     inkscape:groupmode="layer"
     inkscape:label="Image"
     id="g1">
    <path
       style="fill:#000000"
       d="M 97.823774,516.01506 C 81.621446,510.8938 69.648892,498.77459 64.70693,482.49255 c -2.224412,-7.32866 -2.224412,-372.61676 0,-379.94542 7.076862,-23.315792 24.311793,-35.058272 51.49193,-35.082402 13.00411,-0.0115 13.00411,-0.0115 16.34321,-6.27633 9.61914,-18.04737 23.90823,-25.73522 47.83298,-25.73522 13.78094,0 13.78094,0 16.17785,-9.86666 11.47265,-47.226345 21.00894,-54.133331 74.7404,-54.133331 52.03419,0 62.08156,6.711794 73.05227,48.800001 3.96203,15.19999 3.96203,15.19999 17.70591,15.19999 23.88453,0 38.1825,7.6986 47.79591,25.73522 3.3391,6.26478 3.3391,6.26478 16.34322,6.27633 27.18013,0.0241 44.41506,11.76661 51.49192,35.082402 2.22441,7.32866 2.22441,372.61676 0,379.94542 -5.0172,16.52993 -17.05182,28.56455 -33.58175,33.58175 -6.94532,2.10806 -339.60028,2.05115 -346.277006,-0.0592 z M 440.06362,482.07647 c 2.14635,-1.63718 4.5089,-4.03718 5.25011,-5.33333 2.69182,-4.70718 1.88923,-364.10144 -0.82342,-368.71888 -7.90404,-13.454202 -29.29431,-12.211872 -29.29958,1.70169 -0.005,11.91751 -1.54823,15.83693 -7.71959,19.59966 -5.46477,3.33191 -267.08805,3.33191 -272.55282,0 -6.17136,-3.76273 -7.71508,-7.68215 -7.71959,-19.59966 -0.005,-13.913562 -21.39554,-15.155892 -29.299581,-1.70169 -2.513687,4.27878 -4.067962,355.73709 -1.613507,364.85224 1.481127,5.50049 4.903028,9.26309 10.109098,11.11561 9.66906,3.44063 329.05068,1.60701 333.66888,-1.91564 z M 168.2614,451.29418 c -3.32865,-1.81117 -37.82744,-36.29467 -39.5389,-39.52138 -5.39585,-10.17308 2.62702,-23.23889 14.2757,-23.24898 6.41683,-0.006 7.77633,0.89265 20.73513,13.69943 l 11.47192,11.33735 27.46141,-27.3411 c 29.65075,-29.52085 29.87431,-29.70161 36.72461,-29.69568 11.29722,0.01 19.59522,12.90828 14.62471,22.7328 -1.6783,3.31728 -68.09781,69.88993 -71.56827,71.73328 -3.38051,1.79558 -11.13966,1.962 -14.18631,0.30428 z m 126.65691,-32.90192 c -10.30277,-6.28168 -10.30277,-21.46318 0,-27.74486 5.41064,-3.2989 107.14219,-3.2989 112.55283,0 10.30277,6.28168 10.30277,21.46318 0,27.74486 -5.41064,3.29891 -107.14219,3.29891 -112.55283,0 z M 168.2614,355.29418 c -3.32865,-1.81116 -37.82744,-36.29467 -39.5389,-39.52137 -5.39585,-10.17308 2.62702,-23.2389 14.2757,-23.24899 6.41683,-0.006 7.77633,0.89265 20.73513,13.69944 l 11.47192,11.33735 27.46141,-27.3411 c 29.65075,-29.52085 29.87431,-29.70162 36.72461,-29.69568 11.29722,0.01 19.59522,12.90828 14.62471,22.7328 -1.6783,3.31728 -68.09781,69.88992 -71.56827,71.73328 -3.38051,1.79558 -11.13966,1.962 -14.18631,0.30427 z m 126.65691,-32.90192 c -10.30277,-6.28167 -10.30277,-21.46317 0,-27.74485 5.41064,-3.29891 107.14219,-3.29891 112.55283,0 10.30277,6.28168 10.30277,21.46318 0,27.74485 -5.41064,3.29891 -107.14219,3.29891 -112.55283,0 z M 168.2614,259.29419 c -3.32865,-1.81117 -37.82744,-36.29467 -39.5389,-39.52138 -5.39585,-10.17308 2.62702,-23.23889 14.2757,-23.24898 6.41683,-0.006 7.77633,0.89265 20.73513,13.69943 l 11.47192,11.33735 27.46141,-27.34109 c 29.65075,-29.52086 29.87431,-29.70162 36.72461,-29.69569 11.29722,0.01 19.59522,12.90829 14.62471,22.7328 -1.6783,3.31728 -68.09781,69.88993 -71.56827,71.73329 -3.38051,1.79557 -11.13966,1.96199 -14.18631,0.30427 z m 126.65691,-32.90192 c -10.30277,-6.28168 -10.30277,-21.46318 0,-27.74486 5.41064,-3.2989 107.14219,-3.2989 112.55283,0 10.30277,6.28168 10.30277,21.46318 0,27.74486 -5.41064,3.29891 -107.14219,3.29891 -112.55283,0 z M 383.01564,89.540428 c -0.84373,-19.29107 -3.90646,-21.34468 -32.94079,-22.08725 -29.01637,-0.74211 -27.69257,0.43396 -35.8927,-31.88702 -8.39127,-33.074363 -6.35659,-31.57964 -42.98742,-31.57964 -36.63083,0 -34.59615,-1.494723 -42.98742,31.57964 -8.20013,32.32098 -6.87633,31.14491 -35.8927,31.88702 -29.03433,0.74257 -32.09706,2.79618 -32.94079,22.08725 l -0.43355,9.91275 h 112.25446 112.25446 z"
       id="path1" />
  </g>
</svg>
